<svg clip-rule="evenodd" fill-rule="evenodd" stroke-linejoin="round" stroke-miterlimit="2" viewBox="0 0 560 400" xmlns="http://www.w3.org/2000/svg"><g fill-rule="nonzero" transform="matrix(.36036 0 0 .36036 76.5766 -270.032)"><path d="m65 1157.15h36.901v210.068h-36.901z"/><path d="m196.359 1214.82c-47.311 0-80.052 36.38-80.052 78.02 0 46.47 35.618 78.48 80.42 78.48 42.52 0 79.417-31.43 79.417-78.58 0-39.66-30.574-77.92-79.785-77.92zm-.434 35.6c24.76 0 42.984 19.27 42.984 42.55 0 24.68-20.093 42.68-42.316 42.68-26.258 0-42.783-20.81-42.783-42.61 0-23.9 18.657-42.62 42.115-42.62z"/><path d="m368.858 1214.82c-47.312 0-80.052 36.38-80.052 78.02 0 46.47 35.618 78.48 80.42 78.48 42.52 0 79.417-31.43 79.417-78.58 0-27.78-12.026-40.1-12.026-40.1l10.228-3.5v-29.95h-52.41s-11.362-4.37-25.577-4.37zm-.434 35.6c24.759 0 42.984 19.27 42.984 42.55 0 24.68-20.093 42.68-42.316 42.68-26.258 0-42.784-20.81-42.784-42.61 0-23.9 18.658-42.62 42.116-42.62z"/><path d="m411.147 1377.49c0 24.68-20.093 42.81-42.316 42.81-26.258 0-42.85-21.01-42.85-42.81h-37.436c0 46.47 35.618 78.48 80.42 78.48 42.52 0 79.417-31.32 79.417-78.48z"/><path d="m463.423 1219.19h36.901v148.032h-36.901z"/><path d="m536.156 1367.22v-114.87h-19.788v-33.16h19.788v-45.46h36.901v45.46h20.322v33.16h-20.322v114.87z"/><path d="m487.107 386.789c0 10.668-8.649 19.317-19.318 19.317-10.668 0-19.317-8.649-19.317-19.317 0-10.669 8.649-19.318 19.317-19.318 10.669 0 19.318 8.649 19.318 19.318z" transform="matrix(1.26496 0 0 1.26496 -109.936 687.873)"/><path d="m676.339 1214.72c-47.536 0-78.18 36.4-78.18 79.45 0 44.5 30.746 77.25 78.949 77.25 44.965 0 67.084-28.08 67.084-28.08l-24.668-24.7s-18.625 20.09-41.948 20.09c-19.442 0-34.987-10.85-40.411-30.75h114.982v-10.16c0-40.55-23.467-83.1-75.808-83.1zm-1.17 32.49c16.999 0 34.384 9.1 38.272 30.82h-77.278c3.061-15.27 16.419-30.82 39.006-30.82z"/><path d="m844.447 1371.44c-47.67 0-80.152-36.31-80.152-79.12 0-44.18 36.71-77.63 79.999-77.63 41.848 0 63.269 29.55 63.269 29.55l-25.742 25.62s-14.911-19.26-37.702-19.26c-25.259 0-42.531 19.32-42.531 42.29 0 24.25 18.373 42.86 42.247 42.86 23.158 0 37.95-19.24 37.95-19.24l25.999 25.61s-21.212 29.32-63.337 29.32z"/><path d="m921.209 1367.33v-210.71h36.901v77.41s14.13-19.34 44.87-19.34c38.64 0 61.02 28.73 61.02 65.46v87.18h-36.9v-81.6c0-24.68-15.37-34.92-32.389-34.92-19.394 0-36.601 11.04-36.601 36.83v79.69z"/></g></svg>